<svg style="display: none;">
<symbol id="molonglo-logo" viewBox="0 0 360 42" >
<path d="M44.1,39.2v-0.4l3.5-2.6V7.9l-0.5,2.4l-12,28.9h-2.7L20.8,10.7l-0.4-2.8v28.3l3.4,2.6v0.4h-9.5v-0.4
	l3.5-2.6V5.5l-3.5-2.6V2.5h9.2l11,27l0.7,3.2l0.6-2.5L47.3,2.5h9.2v0.4L53,5.5v30.8l3.4,2.6v0.4H44.1z"/>
<path d="M83.1,39.8c-10.8,0-18-8.3-18-19c0-10.7,7.2-18.9,18-18.9c10.7,0,18,8.3,18,18.9
	C101.1,31.5,93.9,39.8,83.1,39.8z M83.1,4.5c-8,0-11.8,6.8-11.8,16.4c0,9.4,3.8,16.4,11.8,16.4c7.9,0,11.8-7,11.8-16.4
	C95,11.3,91.1,4.5,83.1,4.5z"/>
<path d="M108.9,2.9V2.5h12.4v0.4l-3.5,2.6v30.8l0.4,0.4h13.2l5-5.7h0.4l-1.3,8.3h-26.5v-0.4l3.5-2.6V5.5L108.9,2.9
	z"/>
<path d="M161.3,39.8c-10.8,0-18-8.3-18-19c0-10.7,7.2-18.9,18-18.9c10.7,0,18,8.3,18,18.9
	C179.3,31.5,172,39.8,161.3,39.8z M161.3,4.5c-8,0-11.8,6.8-11.8,16.4c0,9.4,3.8,16.4,11.8,16.4c7.9,0,11.8-7,11.8-16.4
	C173.1,11.3,169.2,4.5,161.3,4.5z"/>
<path d="M222.7,2.5v0.4l-3.5,2.6v33.7L194.5,9.8L194,7.4v28.9l3.4,2.6v0.4h-9.5v-0.4l3.5-2.6V5.5l-3.5-2.6V2.5h7.6
	L216.1,27l0.6,2.4v-24l-3.5-2.6V2.5H222.7z"/>
<path d="M262.3,35.7c-3,3-6.4,4-10.9,4c-12.8,0-20.2-7.3-20.2-19c0-10.7,8.4-18.9,19.1-18.9c3.2,0,7.8,0.6,11,2.4
	v8.2h-0.7c-1.2-3.7-3.6-8-10.4-8c-7.6,0-12.8,6.7-12.8,16.4c0,9.8,5.3,16.4,14.6,16.4c1.7,0,3.9-0.3,3.9-2v-9.7l-0.4-0.4h-4.1
	v-2.6h13.3V23l-3.5,2.6v7.8C261.2,35,262.3,35.7,262.3,35.7z"/>
<path d="M273.8,2.9V2.5h12.4v0.4l-3.5,2.6v30.8l0.4,0.4h13.2l5-5.7h0.4l-1.3,8.3h-26.5v-0.4l3.5-2.6V5.5L273.8,2.9
	z"/>
<path d="M324.9,39.8c-10.8,0-18-8.3-18-19c0-10.7,7.2-18.9,18-18.9c10.7,0,18,8.3,18,18.9
	C342.9,31.5,335.6,39.8,324.9,39.8z M324.9,4.5c-8,0-11.8,6.8-11.8,16.4c0,9.4,3.8,16.4,11.8,16.4c7.9,0,11.8-7,11.8-16.4
	C336.8,11.3,332.9,4.5,324.9,4.5z"/>
</symbol>
<symbol id="group" viewBox="0 0 360 60">
<g>
	<path d="M99.6,7.3l0.5,0.7c-5.4,5.6-7.8,11.2-7.8,21c0,9.8,2.4,15.5,7.8,21l-0.5,0.7C92.2,45.4,88.3,38.5,88.3,29
		C88.3,19.5,92.2,12.6,99.6,7.3z"/>
	<path d="M136.4,40.6c-2.9,2.8-6,3.8-10.3,3.8c-12.1,0-19.2-6.9-19.2-18c0-10.1,7.9-17.9,18.1-17.9
		c3.1,0,7.4,0.5,10.4,2.3v7.7h-0.7c-1.2-3.5-3.4-7.6-9.9-7.6c-7.2,0-12.1,6.4-12.1,15.5c0,9.3,5.1,15.5,13.8,15.5
		c1.7,0,3.7-0.2,3.7-1.9v-9.2l-0.3-0.3h-3.9v-2.4h12.6v0.3l-3.3,2.4v7.4C135.4,39.9,136.4,40.6,136.4,40.6z"/>
	<path d="M144.9,43.9v-0.3l2.6-1.6V24.7l-2.6-1.3v-0.3l7-2v5.2c1.7-2.6,4.1-4.7,7.1-4.7c3,0,5.2,2.1,5.2,4.8
		c0,1.5-1,2.3-2.1,2.3c-1.1,0-2.2-0.8-2.5-2.7c-0.2-1.7-0.9-2.3-2.1-2.3c-2.2,0-5.5,3.9-5.5,8.6V42l2.6,1.6v0.3H144.9z"/>
	<path d="M180.8,44.4c-6.7,0-11.6-5.1-11.6-11.5s4.9-11.5,11.6-11.5c6.7,0,11.6,5.1,11.6,11.5
		S187.6,44.4,180.8,44.4z M180.8,23.7c-4.5,0-6.5,4-6.5,9.2c0,5.2,2,9.2,6.5,9.2c4.5,0,6.5-4,6.5-9.2
		C187.4,27.7,185.3,23.7,180.8,23.7z"/>
	<path d="M200.7,24.7l-2.6-1.3v-0.3l7-2v16.5c0,3.1,1.2,4,3.4,4c3,0,7.4-4.4,7.4-4.4V24.7l-2.6-1.3v-0.3l7-2V42
		l2.6,1.6v0.3h-7v-4.2c0,0-5.4,4.8-9.4,4.8c-4.5,0-5.9-2.7-5.9-6.9V24.7z"/>
	<path d="M234.9,25.4c1.4-2.2,4.2-3.9,7.2-3.9c6.9,0,11,5.1,11,11.5c0,6.8-4.5,11.5-11,11.5c-2.4,0-5-1.4-6.2-3.2
		V55l2.6,1.6v0.3H229v-0.3l2.6-1.6V24l-2.6-1.6v-0.3h6V25.4z M242.2,23.7c-3.3,0-6.2,2.3-6.2,5.8V36c0,3.7,2.9,6.2,6.2,6.2
		c3.9,0,5.9-3.4,5.9-9.2C248.1,27.2,246.1,23.7,242.2,23.7z"/>
	<path d="M258.4,50.7l-0.5-0.7c5.4-5.6,7.8-11.2,7.8-21c0-9.8-2.4-15.4-7.8-21l0.5-0.7c7.4,5.3,11.3,12.2,11.3,21.7
		C269.8,38.5,265.8,45.4,258.4,50.7z"/>
</g>
<rect x="201.3" y="-3.6" width="0.4" height="0.9"/>
</symbol>
<symbol id="clockface" viewBox="0 0 136.062 136.062">
<g>
	<g>
		
			<rect x="30.613" y="13.505" transform="matrix(-0.5 -0.866 0.866 -0.5 43.1285 54.9101)" width="13.606" height="3"/>
	</g>
	<g>
		<rect x="66.531" y="0" width="3" height="20.409"/>
	</g>
	<g>
		
			<rect x="13.505" y="91.848" transform="matrix(-0.5002 -0.8659 0.8659 -0.5002 -62.9136 160.984)" width="3.001" height="13.604"/>
	</g>
	<g>
		
			<rect x="119.553" y="30.616" transform="matrix(-0.5001 -0.866 0.866 -0.5001 149.1814 160.9613)" width="3" height="13.605"/>
	</g>
	<g>
		
			<rect x="35.912" y="114.256" transform="matrix(-0.8661 -0.4999 0.4999 -0.8661 9.2942 244.6086)" width="3" height="13.607"/>
	</g>
	<g>
		
			<rect x="97.148" y="8.206" transform="matrix(-0.866 -0.5001 0.5001 -0.866 176.57 77.3374)" width="3" height="13.606"/>
	</g>
	<g>
		
			<rect x="91.85" y="119.556" transform="matrix(-0.5 -0.866 0.866 -0.5 43.1431 267.02)" width="13.605" height="3"/>
	</g>
	<g>
		
			<rect x="8.205" y="35.916" transform="matrix(-0.866 -0.5 0.5 -0.866 9.2948 77.3231)" width="13.605" height="3"/>
	</g>
	<g>
		
			<rect x="114.255" y="97.141" transform="matrix(-0.866 -0.5 0.5 -0.866 176.5742 244.5962)" width="13.605" height="3"/>
	</g>
	<g>
		<rect x="66.531" y="115.654" width="3" height="20.408"/>
	</g>
	<g>
		<rect x="115.653" y="66.531" width="20.408" height="3"/>
	</g>
	<g>
		<rect x="0" y="66.531" width="20.41" height="3"/>
	</g>
	<g>
		<rect x="66.535" y="0" width="3" height="20.409"/>
	</g>
	<g>
		<rect x="66.535" y="115.654" width="3" height="20.408"/>
	</g>
</g>
</symbol>
<symbol id="hour-hand" viewBox="0 0 136 136">
<path d="M69.143,17.232l-2.25,0.001l-1.103,50.983v0.001v0.002l1.108,20.408l2.25,0.002L70.29,68.22v-0.003
	L69.143,17.232z"/>
</symbol>
<symbol id="minute-hand" viewBox="0 0 136 136">
<polygon points="68.911,23.766 66.659,23.771 65.632,67.974 66.801,88.371 69.053,88.365 70.133,67.964 "/>
</symbol>
<symbol id="left-arrow" viewBox="0 0 22 18">
<polygon points="3.828,8.002 10.424,1.414 9.009,0 0,8.999 9.009,18 10.424,16.586 3.835,10.002 22,10.002 22,8.002 
	"/>
</symbol>
</svg>