<svg style="display: none;">
<symbol id="molonglo-logo" viewBox="0 0 360 42" >
<path d="M44.1,39.2v-0.4l3.5-2.6V7.9l-0.5,2.4l-12,28.9h-2.7L20.8,10.7l-0.4-2.8v28.3l3.4,2.6v0.4h-9.5v-0.4
	l3.5-2.6V5.5l-3.5-2.6V2.5h9.2l11,27l0.7,3.2l0.6-2.5L47.3,2.5h9.2v0.4L53,5.5v30.8l3.4,2.6v0.4H44.1z"/>
<path d="M83.1,39.8c-10.8,0-18-8.3-18-19c0-10.7,7.2-18.9,18-18.9c10.7,0,18,8.3,18,18.9
	C101.1,31.5,93.9,39.8,83.1,39.8z M83.1,4.5c-8,0-11.8,6.8-11.8,16.4c0,9.4,3.8,16.4,11.8,16.4c7.9,0,11.8-7,11.8-16.4
	C95,11.3,91.1,4.5,83.1,4.5z"/>
<path d="M108.9,2.9V2.5h12.4v0.4l-3.5,2.6v30.8l0.4,0.4h13.2l5-5.7h0.4l-1.3,8.3h-26.5v-0.4l3.5-2.6V5.5L108.9,2.9
	z"/>
<path d="M161.3,39.8c-10.8,0-18-8.3-18-19c0-10.7,7.2-18.9,18-18.9c10.7,0,18,8.3,18,18.9
	C179.3,31.5,172,39.8,161.3,39.8z M161.3,4.5c-8,0-11.8,6.8-11.8,16.4c0,9.4,3.8,16.4,11.8,16.4c7.9,0,11.8-7,11.8-16.4
	C173.1,11.3,169.2,4.5,161.3,4.5z"/>
<path d="M222.7,2.5v0.4l-3.5,2.6v33.7L194.5,9.8L194,7.4v28.9l3.4,2.6v0.4h-9.5v-0.4l3.5-2.6V5.5l-3.5-2.6V2.5h7.6
	L216.1,27l0.6,2.4v-24l-3.5-2.6V2.5H222.7z"/>
<path d="M262.3,35.7c-3,3-6.4,4-10.9,4c-12.8,0-20.2-7.3-20.2-19c0-10.7,8.4-18.9,19.1-18.9c3.2,0,7.8,0.6,11,2.4
	v8.2h-0.7c-1.2-3.7-3.6-8-10.4-8c-7.6,0-12.8,6.7-12.8,16.4c0,9.8,5.3,16.4,14.6,16.4c1.7,0,3.9-0.3,3.9-2v-9.7l-0.4-0.4h-4.1
	v-2.6h13.3V23l-3.5,2.6v7.8C261.2,35,262.3,35.7,262.3,35.7z"/>
<path d="M273.8,2.9V2.5h12.4v0.4l-3.5,2.6v30.8l0.4,0.4h13.2l5-5.7h0.4l-1.3,8.3h-26.5v-0.4l3.5-2.6V5.5L273.8,2.9
	z"/>
<path d="M324.9,39.8c-10.8,0-18-8.3-18-19c0-10.7,7.2-18.9,18-18.9c10.7,0,18,8.3,18,18.9
	C342.9,31.5,335.6,39.8,324.9,39.8z M324.9,4.5c-8,0-11.8,6.8-11.8,16.4c0,9.4,3.8,16.4,11.8,16.4c7.9,0,11.8-7,11.8-16.4
	C336.8,11.3,332.9,4.5,324.9,4.5z"/>
</symbol>
<symbol id="group" viewBox="0 0 360 60">
<g>
	<path d="M99.6,7.3l0.5,0.7c-5.4,5.6-7.8,11.2-7.8,21c0,9.8,2.4,15.5,7.8,21l-0.5,0.7C92.2,45.4,88.3,38.5,88.3,29
		C88.3,19.5,92.2,12.6,99.6,7.3z"/>
	<path d="M136.4,40.6c-2.9,2.8-6,3.8-10.3,3.8c-12.1,0-19.2-6.9-19.2-18c0-10.1,7.9-17.9,18.1-17.9
		c3.1,0,7.4,0.5,10.4,2.3v7.7h-0.7c-1.2-3.5-3.4-7.6-9.9-7.6c-7.2,0-12.1,6.4-12.1,15.5c0,9.3,5.1,15.5,13.8,15.5
		c1.7,0,3.7-0.2,3.7-1.9v-9.2l-0.3-0.3h-3.9v-2.4h12.6v0.3l-3.3,2.4v7.4C135.4,39.9,136.4,40.6,136.4,40.6z"/>
	<path d="M144.9,43.9v-0.3l2.6-1.6V24.7l-2.6-1.3v-0.3l7-2v5.2c1.7-2.6,4.1-4.7,7.1-4.7c3,0,5.2,2.1,5.2,4.8
		c0,1.5-1,2.3-2.1,2.3c-1.1,0-2.2-0.8-2.5-2.7c-0.2-1.7-0.9-2.3-2.1-2.3c-2.2,0-5.5,3.9-5.5,8.6V42l2.6,1.6v0.3H144.9z"/>
	<path d="M180.8,44.4c-6.7,0-11.6-5.1-11.6-11.5s4.9-11.5,11.6-11.5c6.7,0,11.6,5.1,11.6,11.5
		S187.6,44.4,180.8,44.4z M180.8,23.7c-4.5,0-6.5,4-6.5,9.2c0,5.2,2,9.2,6.5,9.2c4.5,0,6.5-4,6.5-9.2
		C187.4,27.7,185.3,23.7,180.8,23.7z"/>
	<path d="M200.7,24.7l-2.6-1.3v-0.3l7-2v16.5c0,3.1,1.2,4,3.4,4c3,0,7.4-4.4,7.4-4.4V24.7l-2.6-1.3v-0.3l7-2V42
		l2.6,1.6v0.3h-7v-4.2c0,0-5.4,4.8-9.4,4.8c-4.5,0-5.9-2.7-5.9-6.9V24.7z"/>
	<path d="M234.9,25.4c1.4-2.2,4.2-3.9,7.2-3.9c6.9,0,11,5.1,11,11.5c0,6.8-4.5,11.5-11,11.5c-2.4,0-5-1.4-6.2-3.2
		V55l2.6,1.6v0.3H229v-0.3l2.6-1.6V24l-2.6-1.6v-0.3h6V25.4z M242.2,23.7c-3.3,0-6.2,2.3-6.2,5.8V36c0,3.7,2.9,6.2,6.2,6.2
		c3.9,0,5.9-3.4,5.9-9.2C248.1,27.2,246.1,23.7,242.2,23.7z"/>
	<path d="M258.4,50.7l-0.5-0.7c5.4-5.6,7.8-11.2,7.8-21c0-9.8-2.4-15.4-7.8-21l0.5-0.7c7.4,5.3,11.3,12.2,11.3,21.7
		C269.8,38.5,265.8,45.4,258.4,50.7z"/>
</g>
<rect x="201.3" y="-3.6" width="0.4" height="0.9"/>
</symbol>
<symbol id="clockface" viewBox="0 0 136 136">
<g>
	<g>
		
			<rect x="30.63" y="13.534" transform="matrix(-0.5 -0.8661 0.8661 -0.5 43.1239 54.965)" fill="#14322B" width="13.599" height="2.997"/>
	</g>
	<g>
		<rect x="66.532" y="0.031" fill="#14322B" width="2.999" height="20.399"/>
	</g>
	<g>
		
			<rect x="13.525" y="91.837" transform="matrix(-0.5 -0.866 0.866 -0.5 -62.8816 160.9693)" fill="#14322B" width="3.002" height="13.598"/>
	</g>
	<g>
		
			<rect x="119.532" y="30.628" transform="matrix(-0.4997 -0.8662 0.8662 -0.4997 149.0933 160.965)" fill="#14322B" width="2.998" height="13.597"/>
	</g>
	<g>
		
			<rect x="35.922" y="114.24" transform="matrix(-0.8661 -0.4999 0.4999 -0.8661 9.3283 244.5802)" fill="#14322B" width="2.997" height="13.601"/>
	</g>
	<g>
		
			<rect x="97.134" y="8.23" transform="matrix(-0.8658 -0.5003 0.5003 -0.8658 176.5112 77.3935)" fill="#14322B" width="2.998" height="13.6"/>
	</g>
	<g>
		
			<rect x="91.835" y="119.53" transform="matrix(-0.5001 -0.866 0.866 -0.5001 43.1577 266.973)" fill="#14322B" width="13.598" height="3"/>
	</g>
	<g>
		
			<rect x="8.23" y="35.932" transform="matrix(-0.866 -0.5 0.5 -0.866 9.3285 77.3606)" fill="#14322B" width="13.599" height="2.997"/>
	</g>
	<g>
		
			<rect x="114.239" y="97.126" transform="matrix(-0.8661 -0.5 0.5 -0.8661 176.5563 244.5546)" fill="#14322B" width="13.599" height="3"/>
	</g>
	<g>
		<rect x="66.532" y="115.633" fill="#14322B" width="2.999" height="20.398"/>
	</g>
	<g>
		<rect x="115.633" y="66.532" fill="#14322B" width="20.398" height="2.999"/>
	</g>
	<g>
		<rect x="0.031" y="66.532" fill="#14322B" width="20.4" height="2.999"/>
	</g>
	<g>
		<rect x="66.536" y="0.031" fill="#14322B" width="2.999" height="20.399"/>
	</g>
	<g>
		<rect x="66.536" y="115.633" fill="#14322B" width="2.999" height="20.398"/>
	</g>
</g>
</symbol>
<symbol id="seconds-hand" viewBox="0 0 136.062 136.062">
<path d="M69.019,23.801l-2.4-0.001L66.607,85h2.4L69.019,23.801z"/>
</symbol>
<symbol id="minute-hand" viewBox="0 0 136 136">
<path d="M69.143,17.232l-2.25,0.001l-1.103,50.983v0.001v0.002l1.108,20.408l2.25,0.002L70.29,68.22v-0.003
	L69.143,17.232z"/>
</symbol>
<symbol id="hour-hand" viewBox="0 0 136 136">
<polygon points="68.911,23.766 66.659,23.771 65.632,67.974 66.801,88.371 69.053,88.365 70.133,67.964 "/>
</symbol>
<symbol id="left-arrow" viewBox="0 0 22 18">
<polygon points="3.828,8.002 10.424,1.414 9.009,0 0,8.999 9.009,18 10.424,16.586 3.835,10.002 22,10.002 22,8.002 
	"/>
</symbol>
<symbol id="moon-1" viewBox="0 0 30 30">
<circle cx="15" cy="15" r="15"/>
</symbol>
<symbol id="moon-2" viewBox="0 0 30 30">
<path d="M15,0C6.717,0,0,6.716,0,15s6.717,15,15,15c8.285,0,15-6.716,15-15S23.285,0,15,0z M17.231,28.822
	c2.901-3.998,4.478-8.825,4.478-13.822c0-4.998-1.576-9.824-4.478-13.822C23.895,2.249,29,8.04,29,15
	C29,21.96,23.895,27.751,17.231,28.822z"/>
</symbol>
<symbol id="moon-3" viewBox="0 0 30 30">
<path d="M15,0C6.716,0,0,6.716,0,15s6.716,15,15,15s15-6.716,15-15S23.284,0,15,0z M15,29V1c7.72,0,14,6.28,14,14S22.72,29,15,29z"
	/>
</symbol>
<symbol id="moon-4" viewBox="0 0 30 30">
<path d="M15,0C6.715,0,0,6.716,0,15s6.715,15,15,15c8.283,0,15-6.716,15-15S23.283,0,15,0z M15,29c-0.287,0-0.567-0.026-0.851-0.043
	C11.117,25.12,9.291,20.267,9.291,15s1.826-10.12,4.858-13.957C14.433,1.026,14.713,1,15,1c7.719,0,14,6.28,14,14S22.719,29,15,29z"
	/>
</symbol>
<symbol id="moon-5" viewBox="0 0 30 30">
<path d="M15,1c7.72,0,14,6.28,14,14s-6.28,14-14,14S1,22.72,1,15S7.28,1,15,1 M15,0C6.716,0,0,6.716,0,15s6.716,15,15,15
	s15-6.716,15-15S23.284,0,15,0L15,0z"/>
</symbol>
<symbol id="moon-6" viewBox="0 0 30 30">
<path d="M0,15c0,8.284,6.717,15,15,15c8.285,0,15-6.716,15-15S23.285,0,15,0C6.717,0,0,6.716,0,15z M1,15C1,7.28,7.281,1,15,1
	c0.287,0,0.567,0.026,0.851,0.043C18.883,4.88,20.709,9.733,20.709,15s-1.826,10.12-4.858,13.957C15.567,28.974,15.287,29,15,29
	C7.281,29,1,22.72,1,15z"/>
</symbol>
<symbol id="moon-7" viewBox="0 0 30 30">
<path d="M0,15c0,8.284,6.716,15,15,15s15-6.716,15-15S23.284,0,15,0S0,6.716,0,15z M1,15C1,7.28,7.28,1,15,1v28
	C7.28,29,1,22.72,1,15z"/>
</symbol>
<symbol id="mooon-8" viewBox="0 0 30 30">
<path d="M0,15c0,8.284,6.715,15,15,15c8.283,0,15-6.716,15-15S23.283,0,15,0C6.715,0,0,6.716,0,15z M1,15
	C1,8.04,6.105,2.249,12.769,1.178C9.867,5.176,8.291,10.002,8.291,15c0,4.997,1.576,9.824,4.478,13.822C6.105,27.751,1,21.96,1,15z"
	/>
</symbol>
</svg>