<?xml version="1.0" encoding="utf-8"?>
<!-- Generator: Adobe Illustrator 16.0.0, SVG Export Plug-In . SVG Version: 6.00 Build 0)  -->
<!DOCTYPE svg PUBLIC "-//W3C//DTD SVG 1.1//EN" "http://www.w3.org/Graphics/SVG/1.1/DTD/svg11.dtd">
<svg version="1.1" id="Layer_1" xmlns="http://www.w3.org/2000/svg" xmlns:xlink="http://www.w3.org/1999/xlink" x="0px" y="0px"
	 width="136px" height="136px" viewBox="0.031 0.031 136 136" enable-background="new 0.031 0.031 136 136" xml:space="preserve">
<g>
	<g>
		
			<rect x="30.63" y="13.534" transform="matrix(-0.5 -0.8661 0.8661 -0.5 43.1239 54.965)" fill="#14322B" width="13.599" height="2.997"/>
	</g>
	<g>
		<rect x="66.532" y="0.031" fill="#14322B" width="2.999" height="20.399"/>
	</g>
	<g>
		
			<rect x="13.525" y="91.837" transform="matrix(-0.5 -0.866 0.866 -0.5 -62.8816 160.9693)" fill="#14322B" width="3.002" height="13.598"/>
	</g>
	<g>
		
			<rect x="119.532" y="30.628" transform="matrix(-0.4997 -0.8662 0.8662 -0.4997 149.0933 160.965)" fill="#14322B" width="2.998" height="13.597"/>
	</g>
	<g>
		
			<rect x="35.922" y="114.24" transform="matrix(-0.8661 -0.4999 0.4999 -0.8661 9.3283 244.5802)" fill="#14322B" width="2.997" height="13.601"/>
	</g>
	<g>
		
			<rect x="97.134" y="8.23" transform="matrix(-0.8658 -0.5003 0.5003 -0.8658 176.5112 77.3935)" fill="#14322B" width="2.998" height="13.6"/>
	</g>
	<g>
		
			<rect x="91.835" y="119.53" transform="matrix(-0.5001 -0.866 0.866 -0.5001 43.1577 266.973)" fill="#14322B" width="13.598" height="3"/>
	</g>
	<g>
		
			<rect x="8.23" y="35.932" transform="matrix(-0.866 -0.5 0.5 -0.866 9.3285 77.3606)" fill="#14322B" width="13.599" height="2.997"/>
	</g>
	<g>
		
			<rect x="114.239" y="97.126" transform="matrix(-0.8661 -0.5 0.5 -0.8661 176.5563 244.5546)" fill="#14322B" width="13.599" height="3"/>
	</g>
	<g>
		<rect x="66.532" y="115.633" fill="#14322B" width="2.999" height="20.398"/>
	</g>
	<g>
		<rect x="115.633" y="66.532" fill="#14322B" width="20.398" height="2.999"/>
	</g>
	<g>
		<rect x="0.031" y="66.532" fill="#14322B" width="20.4" height="2.999"/>
	</g>
	<g>
		<rect x="66.536" y="0.031" fill="#14322B" width="2.999" height="20.399"/>
	</g>
	<g>
		<rect x="66.536" y="115.633" fill="#14322B" width="2.999" height="20.398"/>
	</g>
</g>
</svg>
