<?xml version="1.0" encoding="utf-8"?>
<!-- Generator: Adobe Illustrator 16.0.0, SVG Export Plug-In . SVG Version: 6.00 Build 0)  -->
<!DOCTYPE svg PUBLIC "-//W3C//DTD SVG 1.1//EN" "http://www.w3.org/Graphics/SVG/1.1/DTD/svg11.dtd">
<svg version="1.1" id="Layer_1" xmlns="http://www.w3.org/2000/svg" xmlns:xlink="http://www.w3.org/1999/xlink" x="0px" y="0px"
	 width="136.062px" height="136.062px" viewBox="0 0 136.062 136.062" enable-background="new 0 0 136.062 136.062"
	 xml:space="preserve">
<g>
	<g>
		
			<rect x="30.613" y="13.505" transform="matrix(-0.5 -0.866 0.866 -0.5 43.1285 54.9101)" fill="#14322B" width="13.606" height="3"/>
	</g>
	<g>
		<rect x="66.531" y="0" fill="#14322B" width="3" height="20.409"/>
	</g>
	<g>
		
			<rect x="13.505" y="91.848" transform="matrix(-0.5002 -0.8659 0.8659 -0.5002 -62.9136 160.984)" fill="#14322B" width="3.001" height="13.604"/>
	</g>
	<g>
		
			<rect x="119.553" y="30.616" transform="matrix(-0.5001 -0.866 0.866 -0.5001 149.1814 160.9613)" fill="#14322B" width="3" height="13.605"/>
	</g>
	<g>
		
			<rect x="35.912" y="114.256" transform="matrix(-0.8661 -0.4999 0.4999 -0.8661 9.2942 244.6086)" fill="#14322B" width="3" height="13.607"/>
	</g>
	<g>
		
			<rect x="97.148" y="8.206" transform="matrix(-0.866 -0.5001 0.5001 -0.866 176.57 77.3374)" fill="#14322B" width="3" height="13.606"/>
	</g>
	<g>
		
			<rect x="91.85" y="119.556" transform="matrix(-0.5 -0.866 0.866 -0.5 43.1431 267.02)" fill="#14322B" width="13.605" height="3"/>
	</g>
	<g>
		
			<rect x="8.205" y="35.916" transform="matrix(-0.866 -0.5 0.5 -0.866 9.2948 77.3231)" fill="#14322B" width="13.605" height="3"/>
	</g>
	<g>
		
			<rect x="114.255" y="97.141" transform="matrix(-0.866 -0.5 0.5 -0.866 176.5742 244.5962)" fill="#14322B" width="13.605" height="3"/>
	</g>
	<g>
		<rect x="66.531" y="115.654" fill="#14322B" width="3" height="20.408"/>
	</g>
	<g>
		<rect x="115.653" y="66.531" fill="#14322B" width="20.408" height="3"/>
	</g>
	<g>
		<rect x="0" y="66.531" fill="#14322B" width="20.41" height="3"/>
	</g>
	<g>
		<rect x="66.535" y="0" fill="#14322B" width="3" height="20.409"/>
	</g>
	<g>
		<rect x="66.535" y="115.654" fill="#14322B" width="3" height="20.408"/>
	</g>
</g>
</svg>
