<?xml version="1.0" encoding="utf-8"?>
<!-- Generator: Adobe Illustrator 16.0.0, SVG Export Plug-In . SVG Version: 6.00 Build 0)  -->
<!DOCTYPE svg PUBLIC "-//W3C//DTD SVG 1.1//EN" "http://www.w3.org/Graphics/SVG/1.1/DTD/svg11.dtd">
<svg version="1.1" id="Layer_1" xmlns="http://www.w3.org/2000/svg" xmlns:xlink="http://www.w3.org/1999/xlink" x="0px" y="0px"
	 width="30px" height="30px" viewBox="0 0 30 30" enable-background="new 0 0 30 30" xml:space="preserve">
<path d="M15,0C6.715,0,0,6.716,0,15s6.715,15,15,15c8.283,0,15-6.716,15-15S23.283,0,15,0z M15,29c-0.287,0-0.567-0.026-0.851-0.043
	C11.117,25.12,9.291,20.267,9.291,15s1.826-10.12,4.858-13.957C14.433,1.026,14.713,1,15,1c7.719,0,14,6.28,14,14S22.719,29,15,29z"
	/>
</svg>
