<?xml version="1.0" encoding="utf-8"?>
<!-- Generator: Adobe Illustrator 16.0.0, SVG Export Plug-In . SVG Version: 6.00 Build 0)  -->
<!DOCTYPE svg PUBLIC "-//W3C//DTD SVG 1.1//EN" "http://www.w3.org/Graphics/SVG/1.1/DTD/svg11.dtd">
<svg version="1.1" id="Layer_1" xmlns="http://www.w3.org/2000/svg" xmlns:xlink="http://www.w3.org/1999/xlink" x="0px" y="0px"
	 width="30px" height="30px" viewBox="0 0 30 30" enable-background="new 0 0 30 30" xml:space="preserve">
<path d="M0,15c0,8.284,6.717,15,15,15c8.285,0,15-6.716,15-15S23.285,0,15,0C6.717,0,0,6.716,0,15z M1,15C1,7.28,7.281,1,15,1
	c0.287,0,0.567,0.026,0.851,0.043C18.883,4.88,20.709,9.733,20.709,15s-1.826,10.12-4.858,13.957C15.567,28.974,15.287,29,15,29
	C7.281,29,1,22.72,1,15z"/>
</svg>
